<svg width="1200" height="168" viewBox="0 0 1200 168" fill="none" xmlns="http://www.w3.org/2000/svg">
<g clip-path="url(#clip0_3_51)">
<g clip-path="url(#clip1_3_51)">
<path d="M88.6783 58.4492H91.0196C103.685 58.4492 113.953 48.199 113.953 35.555V22.8943C113.953 10.2503 103.685 -3.79077e-08 91.0196 0L88.6783 6.89537e-09C76.0131 4.48031e-08 65.7453 10.2503 65.7453 22.8943V35.555C65.7453 48.199 76.0131 58.4492 88.6783 58.4492ZM88.6783 167.16H91.0196C103.685 167.16 113.953 156.911 113.953 144.266V131.605C113.953 118.961 103.685 108.711 91.0196 108.711H88.6783C76.0131 108.711 65.7453 118.961 65.7453 131.605V144.266C65.7453 156.911 76.0131 167.16 88.6783 167.16ZM146.289 87.0005C146.289 96.5076 138.566 104.215 129.04 104.215C119.513 104.215 111.79 96.5076 111.79 87.0005V80.1586C111.79 70.6516 119.513 62.9447 129.04 62.9447C138.566 62.9447 146.289 70.6516 146.289 80.1586V87.0005ZM146.289 34.5132C146.289 28.5865 151.103 23.7823 157.042 23.7823C162.981 23.7823 167.795 28.5865 167.795 34.5132V54.8647C167.795 60.7908 162.981 65.5956 157.042 65.5956C151.103 65.5956 146.289 60.7908 146.289 54.8647V34.5132ZM146.289 112.294C146.289 106.368 151.103 101.564 157.042 101.564C162.981 101.564 167.795 106.368 167.795 112.294V132.647C167.795 138.573 162.981 143.377 157.042 143.377C151.103 143.377 146.289 138.573 146.289 132.647V112.294ZM165.542 77.4297C165.542 73.4783 168.752 70.2755 172.711 70.2755C176.67 70.2755 179.879 73.4783 179.879 77.4297V89.7299C179.879 93.6809 176.67 96.8837 172.711 96.8837C168.752 96.8837 165.542 93.6809 165.542 89.7299V77.4297ZM12.0846 34.5132C12.0846 28.5865 16.8991 23.7823 22.8375 23.7823C28.7759 23.7823 33.5904 28.5865 33.5904 34.5132V54.8647C33.5904 60.7908 28.7763 65.5956 22.8375 65.5956C16.8991 65.5956 12.0846 60.7908 12.0846 54.8647V34.5132ZM12.0846 112.294C12.0846 106.368 16.8991 101.564 22.8375 101.564C28.7759 101.564 33.5904 106.368 33.5904 112.294V132.647C33.5904 138.573 28.7763 143.377 22.8375 143.377C16.8991 143.377 12.0846 138.573 12.0846 132.647V112.294ZM68.0892 80.1586C68.0892 70.6516 60.3665 62.9447 50.8394 62.9447C41.3128 62.9447 33.5904 70.6516 33.5904 80.1586V87.0005C33.5904 96.5076 41.3132 104.215 50.8394 104.215C60.3665 104.215 68.0892 96.5076 68.0892 87.0005V80.1586ZM0 77.4297C-1.1864e-08 73.4783 3.20938 70.2755 7.16832 70.2755C11.1277 70.2755 14.3371 73.4783 14.3371 77.4297V89.7299C14.3371 93.6809 11.1277 96.8837 7.16832 96.8837C3.20938 96.8837 4.87951e-08 93.6809 3.69328e-08 89.7299L0 77.4297ZM246.973 142.527V34.8672L239.594 26.0369V24.5605H322.883L325.339 47.9565H323.859L310.743 37.4895L267.951 36.0122V74.6284L299.267 74.1356L309.273 64.9744H310.753V96.2263H309.273L299.267 87.0652L267.951 86.4121V142.538L246.973 142.527Z" fill="white"></path>
<path d="M246.977 142.527V34.8671L239.598 26.0369V24.5605L322.887 24.5604L325.343 47.9567H323.863L310.747 37.4895L267.955 36.0122V74.6282L299.271 74.1354L309.277 64.9742H310.758V96.2261H309.277L299.271 87.0649L267.955 86.4119V142.538L246.977 142.527ZM330.331 114.872V70.3705L324.593 62.8458V61.3687L350.012 56.7883V112.582C350.012 124.687 356.897 129.6 365.584 129.6C374.766 129.6 382.796 121.904 384.932 110.452V70.5307L379.192 62.835V61.3584L404.774 56.7771V142.518H384.932V126.977C380.339 136.963 370.829 144.156 359.512 144.156C342.622 144.156 330.331 133.025 330.331 114.862V114.872ZM424.067 142.532V71.3582L418.326 62.8493V61.3726L443.745 56.7918V72.9857C448.334 63.1706 457.688 55.9677 469.321 55.9677C486.216 55.9677 498.345 67.0988 498.345 85.2613V142.532H478.679V87.5517C478.679 76.4206 472.606 70.5346 463.105 70.5346C453.6 70.5346 445.891 78.2191 443.758 89.6814V142.532H424.067ZM509.283 99.9872C509.283 74.1397 526.83 55.9772 551.262 55.9772C559.951 55.9772 568.153 59.4126 573.557 65.2995V36.6691L567.825 28.1607V26.6829L593.236 22.1019V142.53H573.57V127.964C569.301 137.457 559.148 144.157 547.498 144.157C525.203 144.157 509.296 126.327 509.296 99.976L509.283 99.9872ZM573.548 110.958V84.6177C570.924 73.0051 563.378 66.4552 553.386 66.4552C538.964 66.4552 529.778 80.8502 529.778 99.8373C529.778 118.824 538.8 130.597 552.41 130.597C563.072 130.597 571.761 122.581 573.557 110.968L573.548 110.958ZM710.948 142.531V71.3569L705.212 62.8484V61.3717L730.623 56.7905V73.1558C735.056 63.3408 744.073 55.9772 755.551 55.9772C768.173 55.9772 777.194 62.6881 780.479 74.1397C785.879 62.3565 796.053 55.9772 806.711 55.9772C822.937 55.9772 834.091 67.2685 834.091 84.7788V142.542H814.248V87.5612C814.248 74.8035 807.859 70.5441 800.318 70.5441C791.296 70.5441 783.76 78.0679 782.279 89.8516V142.542H762.596V87.5612C762.596 74.8035 756.207 70.5441 748.826 70.5441C739.645 70.5441 732.112 78.5603 730.623 90.0123V142.531H710.948ZM885.872 55.9772C915.052 55.9772 926.042 77.2438 924.889 99.0132H865.2C865.861 117.989 876.673 129.121 891.272 129.121C902.745 129.121 910.783 122.41 914.555 111.611L925.381 114.393C921.609 132.224 907.994 144.169 887.499 144.169C861.263 144.169 845.201 124.047 845.201 99.9876C845.201 75.9274 860.279 55.9772 885.859 55.9772H885.872ZM904.554 89.8408C903.738 76.7515 897.332 65.4601 885.859 65.4601C874.381 65.4601 867.324 76.0984 865.696 89.8408H904.554ZM938.214 142.532V71.3582L932.478 62.8493V61.3726L957.898 56.7918V72.9857C962.482 63.1706 971.832 55.9677 983.478 55.9677C1000.37 55.9677 1012.5 67.0988 1012.5 85.2613V142.532H992.819V87.5517C992.819 76.4206 986.745 70.5346 977.245 70.5346C967.744 70.5346 960.035 78.2191 957.898 89.6814V142.532H938.214ZM1032.29 68.905H1018.2V59.5827C1032.13 58.1056 1038.69 52.8722 1041.48 36.8392H1051.96V57.6244L1071.96 56.3188L1072.46 68.9158H1051.96V119.144C1051.96 128.145 1057.05 131.741 1063.44 131.741C1066.39 131.741 1069.67 131.089 1072.3 129.291L1072.95 138.452C1070 141.556 1064.27 144.178 1057.54 144.178C1043.28 144.178 1032.29 136.814 1032.29 118.652V68.905ZM1180.32 142.531V36.6691L1174.58 28.1607V26.6829L1200 22.1019V142.53L1180.32 142.531ZM1117.54 144.182C1095.56 144.182 1079.65 126.338 1079.65 99.9803C1079.65 74.1139 1097.2 55.9419 1121.64 55.9419C1132.14 55.9419 1141.49 60.362 1146.41 65.601L1153.8 56.7603H1163.63V142.545H1143.95V127.975C1139.68 137.47 1129.52 144.182 1117.54 144.182ZM1122.79 130.595C1133.46 130.595 1142.15 122.736 1143.95 110.949V83.2819C1141.65 72.8043 1133.78 66.4195 1123.77 66.4195C1109.5 66.4195 1100.15 80.8261 1100.15 99.817C1100.15 118.152 1109.18 130.595 1122.79 130.595ZM644.361 144.182C622.377 144.182 606.466 126.338 606.466 99.9803C606.466 74.1139 624.022 55.9419 648.462 55.9419C658.964 55.9419 668.314 60.362 673.235 65.601L680.616 56.7603H690.462V142.545H670.77V127.975C666.509 137.47 656.335 144.182 644.361 144.182ZM649.61 130.595C660.272 130.595 668.97 122.736 670.77 110.949V83.2819C668.478 72.8043 660.604 66.4195 650.594 66.4195C636.324 66.4195 626.974 80.8261 626.974 99.817C626.974 118.152 635.991 130.595 649.61 130.595Z" fill="white"></path>
</g>
</g>
<defs>
<clipPath id="clip0_3_51">
<rect width="1200" height="168" fill="white"></rect>
</clipPath>
<clipPath id="clip1_3_51">
<rect width="1200" height="168" fill="white"></rect>
</clipPath>
</defs>
</svg>