<svg width="300" height="279" viewBox="0 0 300 279" fill="none" xmlns="http://www.w3.org/2000/svg">
<g clip-path="url(#clip0_3_55)">
<path d="M147.896 97.555H151.801C172.925 97.555 190.048 80.4469 190.048 59.3434V38.2119C190.048 17.1083 172.925 -6.32701e-08 151.801 0L147.896 1.15088e-08C126.774 7.47789e-08 109.649 17.1083 109.649 38.2119V59.3434C109.649 80.4469 126.774 97.555 147.896 97.555ZM147.896 279H151.801C172.925 279 190.048 261.893 190.048 240.788V219.657C190.048 198.554 172.925 181.445 151.801 181.445H147.896C126.774 181.445 109.649 198.554 109.649 219.657V240.788C109.649 261.893 126.774 279 147.896 279ZM243.979 145.209C243.979 161.077 231.099 173.94 215.211 173.94C199.322 173.94 186.442 161.077 186.442 145.209V133.789C186.442 117.921 199.322 105.058 215.211 105.058C231.099 105.058 243.979 117.921 243.979 133.789V145.209ZM243.979 57.6045C243.979 47.7125 252.008 39.694 261.913 39.694C271.817 39.694 279.846 47.7125 279.846 57.6045V91.5724C279.846 101.463 271.817 109.483 261.913 109.483C252.008 109.483 243.979 101.463 243.979 91.5724V57.6045ZM243.979 187.426C243.979 177.535 252.008 169.516 261.913 169.516C271.817 169.516 279.846 177.535 279.846 187.426V221.395C279.846 231.286 271.817 239.304 261.913 239.304C252.008 239.304 243.979 231.286 243.979 221.395V187.426ZM276.089 129.235C276.089 122.639 281.441 117.294 288.044 117.294C294.647 117.294 300 122.639 300 129.235V149.764C300 156.359 294.647 161.704 288.044 161.704C281.441 161.704 276.089 156.359 276.089 149.764V129.235ZM20.1545 57.6045C20.1545 47.7125 28.184 39.694 38.0881 39.694C47.9921 39.694 56.0216 47.7125 56.0216 57.6045V91.5724C56.0216 101.463 47.9928 109.483 38.0881 109.483C28.184 109.483 20.1545 101.463 20.1545 91.5724V57.6045ZM20.1545 187.426C20.1545 177.535 28.184 169.516 38.0881 169.516C47.9921 169.516 56.0216 177.535 56.0216 187.426V221.395C56.0216 231.286 47.9928 239.304 38.0881 239.304C28.184 239.304 20.1545 231.286 20.1545 221.395V187.426ZM113.558 133.789C113.558 117.921 100.678 105.058 84.7893 105.058C68.9009 105.058 56.0216 117.921 56.0216 133.789V145.209C56.0216 161.077 68.9016 173.94 84.7893 173.94C100.678 173.94 113.558 161.077 113.558 145.209V133.789ZM0 129.235C-1.97867e-08 122.639 5.35256 117.294 11.9552 117.294C18.5586 117.294 23.9112 122.639 23.9112 129.235V149.764C23.9112 156.359 18.5586 161.704 11.9552 161.704C5.35256 161.704 8.13798e-08 156.359 6.15961e-08 149.764L0 129.235Z" fill="white"></path>
</g>
<defs>
<clipPath id="clip0_3_55">
<rect width="300" height="279" fill="white"></rect>
</clipPath>
</defs>
</svg>